# xmcd
#
# Track frame offsets:
#	150
#	11357
#	23420
#	33216
#	43464
#	56028
#	67756
#	81306
#	91144
#	103191
#	117451
#	130111
#	141114
#	152217
#	166719
#	179648
#	190527
#	204925
#	217562
#	231767
#	244137
#	258283
#
# Disc length: 3596 seconds
#
# Revision: 0
# Processed by: cddbd v1.5.1PL0 Copyright (c) Steve Scherf et al.
# Submitted via: audiograbber 1.83.01
#
DISCID=1b0e0a16
DTITLE=Various Artist - Country Love Songs 2
DYEAR=1900
DGENRE=country
TTITLE0=Frankie Laine - Your Cheatin' Heart
TTITLE1=Hank Williams - Take These Chains From My Heart
TTITLE2=Hank Snow - For Now And Always
TTITLE3=Jim and Jesse - A Memory Of You
TTITLE4=Skeets McDonald - Don't Let The Stars Get In Your Eyes
TTITLE5=Al Dexter - I'll Wait For You Dear
TTITLE6=Ernest Tubb - Remember Me
TTITLE7=Bob Wills and His Texas Playboys - Sweet Jennie Lee
TTITLE8=Eddy Arnold - Enclosed, One Broken Heart
TTITLE9=Ernest Tubb - Don't Look Now
TTITLE10=Gene Autry - Be Honest With Me
TTITLE11=Hank Snow - Unwanted Sign Upon Heart
TTITLE12=Hank Thompson - Humpty Dumpty Heart
TTITLE13=Hayes Sheppard - Hard For To Love
TTITLE14=Jimmie Davis - You Are My Sunshine
TTITLE15=Frankie Laine and Jo Stafford - Hey Good Looking
TTITLE16=Lefty Frizzell - Always Late With Your Kisses
TTITLE17=Leon Payne - I Love You Because
TTITLE18=Bing Cosby - Gotta Get Me Somebody To Love
TTITLE19=Flatt and Scruggs - We'll Meet Again Sweetheart
TTITLE20=Patsy Montana - I Want To Be A Cowboy's Sweetheart
TTITLE21=Frankie Laine - Rose, Rose I Love You
EXTD=
EXTT0=
EXTT1=
EXTT2=
EXTT3=
EXTT4=
EXTT5=
EXTT6=
EXTT7=
EXTT8=
EXTT9=
EXTT10=
EXTT11=
EXTT12=
EXTT13=
EXTT14=
EXTT15=
EXTT16=
EXTT17=
EXTT18=
EXTT19=
EXTT20=
EXTT21=
PLAYORDER=
